<svg xmlns="http://www.w3.org/2000/svg" xmlns:xlink="http://www.w3.org/1999/xlink" id="Layer_1" x="0px" y="0px" viewBox="0 0 752.9 216" style="enable-background:new 0 0 752.9 216;" xml:space="preserve"><style type="text/css">	.st0{fill:#111111;}	.st1{fill:#6C63FF;}</style><g>	<path class="st0" d="M217.2,169.9h-30.1l-5.5,15.5h-12.3l26.3-70.2h13.2l26.2,70.2h-12.3L217.2,169.9z M213.9,161l-11.8-33.3  L190.3,161H213.9z"></path>	<path class="st0" d="M286.2,134.7c4.7,3.8,7.6,9,8.8,15.5h-12.2c-0.7-3.5-2.3-6.2-4.9-8.2s-5.8-3-9.7-3c-4.4,0-8.1,1.6-11.1,4.7  c-3,3.1-4.4,7.7-4.4,13.8s1.5,10.7,4.4,13.8c3,3.2,6.7,4.7,11.1,4.7c3.9,0,7.2-1,9.7-3c2.6-2,4.2-4.8,4.9-8.3H295  c-1.1,6.5-4.1,11.7-8.8,15.6c-4.7,3.8-10.7,5.8-17.9,5.8c-5.4,0-10.2-1.1-14.3-3.4c-4.1-2.3-7.4-5.6-9.7-9.9  c-2.4-4.3-3.5-9.4-3.5-15.3c0-5.8,1.2-10.8,3.5-15.2c2.4-4.3,5.6-7.6,9.7-9.9c4.1-2.3,8.9-3.4,14.3-3.4  C275.5,129,281.5,130.9,286.2,134.7z"></path>	<path class="st0" d="M348.7,134.7c4.7,3.8,7.6,9,8.8,15.5h-12.2c-0.7-3.5-2.3-6.2-4.9-8.2s-5.8-3-9.7-3c-4.4,0-8.1,1.6-11.1,4.7  c-3,3.1-4.4,7.7-4.4,13.8s1.5,10.7,4.4,13.8c3,3.2,6.7,4.7,11.1,4.7c3.9,0,7.2-1,9.7-3c2.6-2,4.2-4.8,4.9-8.3h12.2  c-1.1,6.5-4.1,11.7-8.8,15.6c-4.7,3.8-10.7,5.8-17.9,5.8c-5.4,0-10.2-1.1-14.3-3.4c-4.1-2.3-7.4-5.6-9.7-9.9  c-2.4-4.3-3.5-9.4-3.5-15.3c0-5.8,1.2-10.8,3.5-15.2c2.4-4.3,5.6-7.6,9.7-9.9c4.1-2.3,8.9-3.4,14.3-3.4  C338,129,344,130.9,348.7,134.7z"></path>	<path class="st0" d="M408.6,132.4c4.3,2.3,7.7,5.6,10.1,9.9c2.4,4.3,3.6,9.4,3.6,15.2c0,5.9-1.2,10.9-3.6,15.3  c-2.4,4.3-5.8,7.6-10.1,9.9c-4.3,2.3-9.2,3.4-14.5,3.4c-5.4,0-10.2-1.1-14.5-3.4c-4.3-2.3-7.6-5.6-10.1-10  c-2.5-4.3-3.7-9.4-3.7-15.2s1.2-10.8,3.7-15.2c2.5-4.3,5.8-7.6,10.1-9.9c4.3-2.3,9.1-3.4,14.5-3.4  C399.4,129,404.3,130.1,408.6,132.4z M385.9,141c-2.5,1.3-4.5,3.4-6,6.2s-2.3,6.2-2.3,10.3s0.8,7.5,2.3,10.3s3.5,4.8,6,6.2  c2.5,1.3,5.2,2,8.2,2s5.7-0.7,8.2-2s4.5-3.4,6-6.2s2.3-6.2,2.3-10.3c0-4-0.8-7.5-2.3-10.3s-3.5-4.9-6-6.2s-5.2-2-8.2-2  S388.4,139.6,385.9,141z"></path>	<path class="st0" d="M484.8,129.7v55.7h-11.6v-12.1c-1.4,4.1-3.9,7.3-7.4,9.5c-3.5,2.3-7.6,3.4-12.2,3.4c-6.5,0-11.7-2.1-15.6-6.3  s-5.9-10.1-5.9-17.9v-32.3h11.5v31.1c0,5.1,1.3,8.9,3.8,11.7c2.6,2.7,6.1,4.1,10.5,4.1c4.6,0,8.2-1.5,11-4.4  c2.8-3,4.1-7.3,4.1-12.9v-29.5h11.8L484.8,129.7L484.8,129.7z"></path>	<path class="st0" d="M545.3,135c3.9,4.2,5.9,10.1,5.9,17.9v32.4h-11.5v-31.2c0-5-1.3-8.8-3.8-11.6c-2.6-2.7-6.1-4.1-10.5-4.1  c-4.6,0-8.3,1.5-11,4.4c-2.8,2.9-4.1,7.2-4.1,12.9v29.6h-11.5v-55.7h11.5v12.2c1.5-4.2,4-7.4,7.5-9.7s7.5-3.4,12.1-3.4  C536.2,128.8,541.4,130.9,545.3,135z"></path>	<path class="st0" d="M592.6,175.3v10h-7.1c-5.9,0-10.4-1.4-13.5-4.3c-3.1-2.9-4.6-7.6-4.6-14.3v-27.3h-8v-9.8h8v-13.8H579v13.8  h13.4v9.8H579v27.5c0,3.2,0.6,5.4,1.8,6.6c1.2,1.2,3.2,1.8,6.2,1.8H592.6z"></path>	<path class="st0" d="M603.8,108.7c1.3-1.3,3.1-1.9,5.4-1.9c2.2,0,4,0.6,5.4,1.9s2.1,2.9,2.1,4.8c0,2-0.7,3.5-2.1,4.7  c-1.4,1.2-3.2,1.8-5.4,1.8s-4-0.6-5.4-1.8c-1.3-1.2-2-2.8-2-4.7C601.7,111.6,602.4,109.9,603.8,108.7z M614.9,129.7v55.7h-11.5  v-55.7H614.9z"></path>	<path class="st0" d="M675.5,135c3.9,4.2,5.9,10.1,5.9,17.9v32.4h-11.5v-31.2c0-5-1.3-8.8-3.8-11.6c-2.6-2.7-6.1-4.1-10.5-4.1  c-4.6,0-8.3,1.5-11,4.4c-2.8,2.9-4.1,7.2-4.1,12.9v29.6H629v-55.7h11.5v12.2c1.5-4.2,4-7.4,7.5-9.7s7.5-3.4,12.1-3.4  C666.4,128.8,671.6,130.9,675.5,135z"></path>	<path class="st0" d="M730,132.7c3.6,2.5,6.1,5.8,7.6,9.9v-12.9h11.5V186c0,5.2-1.1,9.8-3.2,13.8c-2.1,4-5.2,7.2-9.1,9.4  c-4,2.3-8.7,3.4-14.1,3.4c-7.8,0-14.1-1.9-18.9-5.6c-4.8-3.7-7.8-8.7-9-15.1h11.4c0.9,3.3,2.8,5.9,5.5,7.7  c2.7,1.9,6.1,2.8,10.3,2.8c4.6,0,8.4-1.4,11.3-4.2c3-2.8,4.4-6.9,4.4-12.3v-13.5c-1.5,4.1-4,7.4-7.6,9.9s-7.9,3.7-12.9,3.7  c-4.8,0-9.2-1.1-13-3.4c-3.8-2.3-6.8-5.6-8.9-9.9c-2.2-4.3-3.2-9.4-3.2-15.3c0-5.8,1.1-10.8,3.2-15.2c2.2-4.3,5.1-7.6,8.9-9.9  c3.8-2.3,8.1-3.4,13-3.4C722.2,129,726.5,130.2,730,132.7z M708.4,144c-3.1,3.3-4.6,7.8-4.6,13.5s1.5,10.2,4.6,13.5  s7.2,4.9,12.3,4.9c3.2,0,6.1-0.8,8.7-2.3c2.6-1.5,4.6-3.7,6.1-6.4c1.5-2.8,2.2-6,2.2-9.7c0-3.6-0.7-6.9-2.2-9.6  c-1.5-2.8-3.5-5-6.1-6.5s-5.5-2.3-8.7-2.3C715.5,139.1,711.4,140.7,708.4,144z"></path></g><g>	<path class="st0" d="M214.9,78.7c-1.2,2.2-3.1,3.9-5.6,5.3c-2.5,1.3-5.6,2-9.2,2c-3.5,0-6.7-0.6-9.5-1.9c-2.8-1.2-5-3-6.7-5.3  S181.3,74,181,71h9c0.2,2.3,1.2,4.2,2.9,5.8s4,2.4,6.8,2.4c2.5,0,4.5-0.7,5.9-2.1s2.1-3.1,2.1-5.3c0-1.9-0.5-3.4-1.5-4.6  s-2.3-2.1-3.8-2.8c-1.5-0.7-3.6-1.5-6.2-2.4c-3.2-1-5.9-2.1-7.9-3.1s-3.8-2.5-5.2-4.5s-2.1-4.5-2.1-7.7c0-2.8,0.7-5.2,2.1-7.3  c1.4-2.1,3.3-3.7,5.9-4.9c2.5-1.2,5.5-1.7,8.8-1.7c5.3,0,9.5,1.3,12.6,3.8s4.9,5.9,5.3,10h-9c-0.3-2-1.3-3.6-2.8-5  s-3.5-2.1-6.1-2.1c-2.4,0-4.2,0.6-5.7,1.8c-1.4,1.2-2.1,2.9-2.1,5.2c0,1.8,0.5,3.2,1.5,4.4s2.2,2.1,3.7,2.7  c1.5,0.7,3.5,1.4,6.1,2.3c3.3,1,6,2.1,8,3.1c2.1,1.1,3.8,2.6,5.3,4.6c1.4,2,2.2,4.7,2.2,7.9C216.8,74.2,216.1,76.5,214.9,78.7z"></path>	<path class="st0" d="M262.4,66.9h-31.2c0.1,4.2,1.3,7.2,3.5,9.3c2.2,2,4.8,3,8,3c2.8,0,5.2-0.7,7.1-2.1c1.9-1.4,3.1-3.3,3.6-5.7h9  c-0.5,2.8-1.7,5.4-3.4,7.6c-1.7,2.2-3.9,3.9-6.7,5.2c-2.7,1.2-5.8,1.9-9.2,1.9c-3.9,0-7.4-0.8-10.4-2.5s-5.4-4.1-7.1-7.2  c-1.7-3.1-2.6-6.8-2.6-11.1c0-4.2,0.9-7.9,2.6-11c1.7-3.1,4.1-5.5,7.1-7.2s6.5-2.5,10.4-2.5c4,0,7.4,0.8,10.4,2.5  c3,1.6,5.2,3.9,6.8,6.8c1.6,2.9,2.4,6.1,2.4,9.6C262.7,64.6,262.6,65.8,262.4,66.9z M252.9,56.4c-1-1.8-2.4-3.1-4.1-4  c-1.7-0.9-3.6-1.3-5.7-1.3c-3.3,0-6,1-8.2,3s-3.4,5-3.6,8.9h23C254.4,60.4,253.9,58.2,252.9,56.4z"></path>	<path class="st0" d="M287.4,76.8L298.9,45h9l-15.4,40.5h-10.1L266.9,45h9L287.4,76.8z"></path>	<path class="st0" d="M351.3,66.9h-31.2c0.1,4.2,1.3,7.2,3.5,9.3c2.2,2,4.8,3,8,3c2.8,0,5.2-0.7,7.1-2.1s3.1-3.3,3.6-5.7h9  c-0.5,2.8-1.7,5.4-3.4,7.6c-1.7,2.2-3.9,3.9-6.7,5.2c-2.7,1.2-5.8,1.9-9.2,1.9c-3.9,0-7.4-0.8-10.4-2.5s-5.4-4.1-7.1-7.2  s-2.6-6.8-2.6-11.1c0-4.2,0.9-7.9,2.6-11s4.1-5.5,7.1-7.2s6.5-2.5,10.4-2.5c4,0,7.4,0.8,10.4,2.5c3,1.6,5.2,3.9,6.8,6.8  c1.6,2.9,2.4,6.1,2.4,9.6C351.6,64.6,351.5,65.8,351.3,66.9z M341.8,56.4c-1-1.8-2.4-3.1-4.1-4s-3.6-1.3-5.7-1.3c-3.3,0-6,1-8.2,3  s-3.4,5-3.6,8.9h23C343.3,60.4,342.8,58.2,341.8,56.4z"></path>	<path class="st0" d="M393.7,48.9c2.8,3,4.3,7.4,4.3,13v23.6h-8.4V62.7c0-3.6-0.9-6.4-2.8-8.4c-1.9-2-4.4-3-7.6-3  c-3.3,0-6,1.1-8,3.2c-2,2.1-3,5.3-3,9.4v21.5h-8.4V45h8.4v8.9c1.1-3,2.9-5.4,5.4-7.1c2.5-1.7,5.5-2.5,8.8-2.5  C387,44.3,390.8,45.8,393.7,48.9z"></path></g><path class="st1" d="M5.2,38c0-3.5,2.9-6.4,6.4-6.4h89.7c3.5,0,6.4,2.9,6.4,6.4v25.6c0,3.5-2.9,6.4-6.4,6.4H11.6 c-3.5,0-6.4-2.9-6.4-6.4C5.2,63.6,5.2,38,5.2,38z M5.2,89.3c0-3.5,2.9-6.4,6.4-6.4h12.8c3.5,0,6.4,2.9,6.4,6.4v12.8 c0,3.5-2.9,6.4-6.4,6.4H11.6c-3.5,0-6.4-2.9-6.4-6.4C5.2,102.1,5.2,89.3,5.2,89.3z M5.2,127.7c0-3.5,2.9-6.4,6.4-6.4h12.8 c3.5,0,6.4,2.9,6.4,6.4v12.8c0,3.5-2.9,6.4-6.4,6.4H11.6c-3.5,0-6.4-2.9-6.4-6.4C5.2,140.5,5.2,127.7,5.2,127.7z M5.2,166.1 c0-3.5,2.9-6.4,6.4-6.4h12.8c3.5,0,6.4,2.9,6.4,6.4v12.8c0,3.5-2.9,6.4-6.4,6.4H11.6c-3.5,0-6.4-2.9-6.4-6.4 C5.2,178.9,5.2,166.1,5.2,166.1z M43.6,89.3c0-3.5,2.9-6.4,6.4-6.4h12.8c3.5,0,6.4,2.9,6.4,6.4v12.8c0,3.5-2.9,6.4-6.4,6.4H50 c-3.5,0-6.4-2.9-6.4-6.4V89.3z M43.6,127.7c0-3.5,2.9-6.4,6.4-6.4h12.8c3.5,0,6.4,2.9,6.4,6.4v12.8c0,3.5-2.9,6.4-6.4,6.4H50 c-3.5,0-6.4-2.9-6.4-6.4V127.7z M43.6,166.1c0-3.5,2.9-6.4,6.4-6.4h12.8c3.5,0,6.4,2.9,6.4,6.4v12.8c0,3.5-2.9,6.4-6.4,6.4H50 c-3.5,0-6.4-2.9-6.4-6.4V166.1z M82,89.3c0-3.5,2.9-6.4,6.4-6.4h12.8c3.5,0,6.4,2.9,6.4,6.4v12.8c0,3.5-2.9,6.4-6.4,6.4H88.4 c-3.5,0-6.4-2.9-6.4-6.4V89.3z M82,127.7c0-3.5,2.9-6.4,6.4-6.4h12.8c3.5,0,6.4,2.9,6.4,6.4v51.2c0,3.5-2.9,6.4-6.4,6.4H88.4 c-3.5,0-6.4-2.9-6.4-6.4V127.7z"></path></svg>